<?xml version="1.0" encoding="UTF-8" standalone="no"?>
<!DOCTYPE svg PUBLIC "-//W3C//DTD SVG 1.1//EN" "http://www.w3.org/Graphics/SVG/1.1/DTD/svg11.dtd">
<svg width="100%" height="100%" viewBox="0 0 540 540" version="1.1" xmlns="http://www.w3.org/2000/svg" xmlns:xlink="http://www.w3.org/1999/xlink" xml:space="preserve" xmlns:serif="http://www.serif.com/" style="fill-rule:evenodd;clip-rule:evenodd;stroke-linejoin:round;stroke-miterlimit:2;">
    <g>
        <g>
            <g transform="matrix(1.41361,0,0,1.41361,0,0)">
                <path d="M347.445,0L34.555,0C15.471,0 0,15.471 0,34.555L0,347.444C0,366.529 15.471,382 34.555,382L347.444,382C366.529,382 382,366.529 382,347.444L382,34.555C382,15.471 366.529,0 347.445,0Z" style="fill:rgb(0,90,95);fill-rule:nonzero;"/>
            </g>
            <g transform="matrix(0.168025,0,0,0.168025,91.4941,59.5152)">
                <path d="M193.931,493.763C172.231,493.763 153.969,501.388 144.756,516.3C135.256,531.688 136.694,551.525 146.831,571.6L390.619,993.612C391.031,994.412 391.031,994.925 390.619,995.662L7.519,1671.71C-2.469,1691.61 -1.981,1711.6 7.519,1727.03C16.719,1741.86 32.931,1751.6 54.656,1751.6L415.206,1751.6C469.106,1751.6 495.119,1715.23 513.544,1681.98C513.544,1681.98 888.206,1019.35 902.794,993.625C901.319,991.25 654.919,561.375 654.919,561.375C636.931,529.413 609.844,493.75 554.544,493.75L193.931,493.75L193.931,493.763Z" style="fill:white;fill-rule:nonzero;"/>
                <path d="M1708.68,0.025C1654.82,0.025 1631.48,33.95 1612.14,68.7C1612.14,68.7 835.394,1446.2 809.794,1491.42C811.106,1493.88 1322.09,2431.31 1322.09,2431.31C1339.99,2463.29 1367.61,2499.99 1422.84,2499.99L1782.97,2499.99C1804.69,2499.99 1821.67,2491.81 1830.82,2476.95C1840.44,2461.58 1840.17,2441.24 1830.08,2421.22L1321.78,1492.54C1321.29,1491.83 1321.29,1490.88 1321.78,1490.17L2120.07,78.675C2130.11,58.75 2130.32,38.425 2120.83,23.025C2111.63,8.175 2094.61,-0.013 2072.88,-0.013L1708.64,-0.013L1708.64,0.012L1708.68,0.012L1708.68,0.025Z" style="fill:rgb(212,214,0);fill-rule:nonzero;"/>
            </g>
        </g>
    </g>
</svg>
